<?xml version="1.0" encoding="UTF-8" standalone="no"?>
<!-- Generator: Adobe Illustrator 16.0.3, SVG Export Plug-In . SVG Version: 6.00 Build 0)  -->

<svg
   version="1.1"
   id="Capa_1"
   x="0px"
   y="0px"
   width="849.12164"
   height="720"
   viewBox="0 0 849.1216 719.99999"
   enable-background="new 0 0 595.28 841.89"
   xml:space="preserve"
   sodipodi:docname="Logo de la Universidad Autonoma de Aguascalientes.svg"
   inkscape:version="1.1 (c68e22c387, 2021-05-23)"
   xmlns:inkscape="http://www.inkscape.org/namespaces/inkscape"
   xmlns:sodipodi="http://sodipodi.sourceforge.net/DTD/sodipodi-0.dtd"
   xmlns="http://www.w3.org/2000/svg"
   xmlns:svg="http://www.w3.org/2000/svg"><defs
   id="defs27" /><sodipodi:namedview
   id="namedview25"
   pagecolor="#ffffff"
   bordercolor="#666666"
   borderopacity="1.0"
   inkscape:pageshadow="2"
   inkscape:pageopacity="0.0"
   inkscape:pagecheckerboard="0"
   showgrid="false"
   fit-margin-top="0"
   fit-margin-left="0"
   fit-margin-right="0"
   fit-margin-bottom="0"
   inkscape:zoom="0.4941263"
   inkscape:cx="280.29271"
   inkscape:cy="405.7667"
   inkscape:window-width="1920"
   inkscape:window-height="1017"
   inkscape:window-x="-8"
   inkscape:window-y="394"
   inkscape:window-maximized="1"
   inkscape:current-layer="Capa_1" />
<g
   id="g22"
   transform="matrix(1.4309108,0,0,1.4309108,-4.0978619,-240.23132)">
	<g
   id="g20">
		
		<path
   fill-rule="evenodd"
   clip-rule="evenodd"
   fill="#a0a6ca"
   d="m 327.862,238.721 c 22.639,0 45.277,0.009 67.916,-0.004 14.8,-0.008 29.651,-0.714 44.098,3.604 47.467,14.187 77.092,45.438 89.046,93.415 2.254,9.044 2.971,18.372 2.974,27.698 0.032,81.151 0.496,162.308 -0.239,243.452 -0.268,29.553 12.47,51.353 34.435,63.567 -1.013,0.955 -2.201,0.503 -3.234,0.504 -23.496,0.023 -46.991,0.041 -70.487,-10e-4 -32.179,-0.057 -58.906,-23.375 -63.525,-55.174 -0.53,-3.653 -0.754,-7.266 -0.754,-10.924 -0.005,-70.154 0.765,-140.318 -0.229,-210.458 -0.988,-69.748 -34.094,-120.369 -95.788,-152.514 -1.443,-0.752 -2.896,-1.485 -4.344,-2.228 0.042,-0.311 0.086,-0.624 0.131,-0.937 z"
   id="path4" />
		<path
   fill-rule="evenodd"
   clip-rule="evenodd"
   fill="#a0a6ca"
   d="m 271.853,599.792 c -30.806,0 -61.731,1.735 -92.392,-0.374 C 122.288,595.484 77.453,552.695 68.2,496.338 67.207,490.288 66.889,484.127 66.893,477.942 66.952,393.616 67.027,309.289 66.815,224.963 66.771,207.394 59.91,192.278 47.327,179.9 c -4.597,-4.523 -10.11,-7.861 -15.34,-12.013 1.584,0 3.169,0 4.753,0 23.165,0.001 46.33,0.001 69.494,0.003 34.551,0.004 63.698,28.394 63.824,63.014 0.259,71.326 -0.267,142.657 0.233,213.981 0.339,48.256 18.171,89.49 53.292,122.83 14.108,13.389 30.341,23.787 48.27,32.077 z"
   id="path6" />
		<path
   fill-rule="evenodd"
   clip-rule="evenodd"
   fill="#063579"
   d="m 2.992,333.9 c 0,-51.32 0.078,-102.642 -0.128,-153.961 -0.019,-4.716 1.412,-5.458 5.585,-5.12 26.058,2.113 46.153,25.127 46.158,53.184 0.016,83.146 -0.074,166.293 0.033,249.438 0.073,56.645 34.698,106.671 87.414,126.748 15.249,5.809 31.018,8.81 47.356,8.797 28.493,-0.023 56.987,0.135 85.478,-0.139 5.015,-0.049 5.581,1.615 5.164,5.924 -2.329,24.063 -22.276,44.354 -47.463,45.436 -24.576,1.056 -49.276,1.679 -73.809,-2.22 C 84.201,650.136 21.732,590.151 6.984,516.056 4.308,502.613 2.969,489.068 2.978,475.364 3.011,428.209 2.991,381.055 2.992,333.9 Z"
   id="path8" />
		<path
   fill-rule="evenodd"
   clip-rule="evenodd"
   fill="#063579"
   d="m 596.155,504.764 c -0.002,51.495 -0.079,102.989 0.122,154.482 0.02,4.992 -1.462,5.643 -5.912,5.06 -26.816,-3.509 -45.54,-24.376 -45.559,-51.44 -0.058,-83.657 0.624,-167.321 -0.25,-250.97 -0.578,-55.318 -26.929,-96.049 -75.79,-121.819 -18.866,-9.951 -39.424,-13.994 -60.746,-14.001 -27.996,-0.01 -55.994,-0.1 -83.989,0.098 -4.165,0.029 -5.37,-0.901 -4.99,-5.157 2.284,-25.594 24.173,-46.25 49.865,-46.163 19.98,0.068 40.034,-1.444 59.938,0.952 63.157,7.604 110.842,39.275 143.035,93.889 16.66,28.262 24.329,59.228 24.291,92.087 -0.054,47.66 -0.013,95.321 -0.015,142.982 z"
   id="path10" />
		<path
   fill-rule="evenodd"
   clip-rule="evenodd"
   fill="#e30f63"
   d="m 342.028,324.876 c 7.571,8.177 15.205,16.296 22.701,24.54 20.766,22.838 23.917,55.493 8.288,81.896 -19.658,33.209 -39.091,66.552 -58.633,99.829 -5.24,8.925 -8.156,18.528 -8.499,28.898 -1.774,0.413 -2.327,-1.121 -3.194,-1.956 -7.675,-7.392 -15.363,-14.773 -22.92,-22.285 -19.398,-19.281 -22.583,-43.347 -8.717,-66.918 18.132,-30.826 36.123,-61.741 54.75,-92.267 9.504,-15.575 16.446,-31.492 13.934,-50.333 0.763,-0.467 1.527,-0.935 2.29,-1.404 z"
   id="path12" />
		<path
   fill-rule="evenodd"
   clip-rule="evenodd"
   fill="#fbb034"
   d="m 250.67,506.284 c -16.226,-14.612 -31.165,-28.97 -34.118,-51.357 -2.151,-16.313 -0.31,-31.857 8.205,-46.251 19.824,-33.513 39.644,-67.028 59.468,-100.541 5.405,-9.137 8.979,-18.849 8.991,-29.595 2.017,-0.349 2.521,1.206 3.345,2.06 6.361,6.585 13.015,12.936 18.884,19.939 14.968,17.861 16.592,40.327 4.74,60.411 -19.534,33.105 -39.054,66.221 -58.734,99.239 -8.344,13.998 -12.641,28.836 -10.781,46.095 z"
   id="path14" />
		<path
   fill-rule="evenodd"
   clip-rule="evenodd"
   fill="#a0a6ca"
   d="m 341.376,168.369 c -13.806,7.538 -23.501,17.449 -29.563,30.804 -4.125,9.088 -6.173,18.584 -5.75,28.536 0.155,3.663 -0.579,5.233 -4.814,5.208 -31.289,-0.188 -62.579,-0.156 -93.868,-0.038 -4.159,0.017 -5.065,-0.883 -4.768,-5.402 1.858,-28.239 23.275,-53.952 56.734,-59.388 0.979,-0.159 1.99,-0.183 2.986,-0.183 25.464,-0.014 50.929,-0.016 76.393,-0.008 0.456,0 0.912,0.155 2.65,0.471 z"
   id="path16" />
		<path
   fill-rule="evenodd"
   clip-rule="evenodd"
   fill="#a0a6ca"
   d="m 257.764,670.676 c 8.813,-5.204 15.816,-10.875 21.504,-18.153 9.536,-12.203 13.15,-26.298 13.508,-41.404 0.083,-3.514 1.136,-4.498 4.587,-4.485 31.303,0.114 62.606,0.149 93.909,-0.033 4.234,-0.024 4.913,1.515 4.769,5.222 -0.903,23.06 -18.78,46.8 -41.623,55.124 -7.418,2.702 -14.987,4.104 -22.916,4.065 -23.811,-0.114 -47.621,-0.036 -71.431,-0.039 -0.329,-10e-4 -0.658,-0.081 -2.307,-0.297 z"
   id="path18" />
	</g>
</g>
</svg>
